<svg width="30" height="30" viewBox="0 0 30 30" fill="none" xmlns="http://www.w3.org/2000/svg">
<path d="M0 3C0 1.34315 1.34315 0 3 0V27H0V3Z" fill="black" fill-opacity="0.7"/>
<path d="M3 3V0L20 0V3L3 3Z" fill="black" fill-opacity="0.7"/>
<rect x="22" y="0.999977" width="2.5" height="12" rx="1.25" fill="black" fill-opacity="0.7"/>
<rect x="17.25" y="8.25" width="2.5" height="12" rx="1.25" transform="rotate(-90 17.25 8.25)" fill="white"/>
<rect x="17.25" y="8.25" width="2.5" height="12" rx="1.25" transform="rotate(-90 17.25 8.25)" fill="black" fill-opacity="0.7"/>
<path d="M27 11H30V27C30 28.6569 28.6569 30 27 30V11Z" fill="black" fill-opacity="0.7"/>
<path d="M27 27V30H3C1.34315 30 0 28.6569 0 27H27Z" fill="black" fill-opacity="0.7"/>
</svg>
